<?xml version="1.0" standalone="no"?>
<!DOCTYPE svg PUBLIC "-//W3C//DTD SVG 20010904//EN"
 "http://www.w3.org/TR/2001/REC-SVG-20010904/DTD/svg10.dtd">
<svg version="1.0" xmlns="http://www.w3.org/2000/svg"
 width="1920.000000pt" height="1080.000000pt" viewBox="0 0 1920.000000 1080.000000"
 preserveAspectRatio="xMidYMid meet">
<metadata>
Created by potrace 1.13, written by Peter Selinger 2001-2015
</metadata>
<g transform="translate(0.000000,1080.000000) scale(0.100000,-0.100000)"
fill="#cc0a0a" stroke="#ffffff">
<path d="M1993 7030 c-23 -5 -89 -13 -145 -19 -91 -8 -198 -34 -416 -98 -87
-26 -304 -187 -359 -266 -25 -36 -28 -49 -27 -116 1 -135 21 -170 204 -351
170 -169 259 -231 358 -250 29 -5 84 -23 123 -40 63 -28 95 -37 244 -69 28 -6
75 -18 105 -26 43 -12 123 -16 365 -18 283 -2 313 0 338 16 19 12 27 26 27 45
0 44 -46 79 -175 133 -129 53 -194 97 -291 193 -102 101 -139 161 -129 207 10
46 112 128 187 149 32 10 258 -41 298 -67 30 -19 232 -198 277 -245 39 -40
157 -326 168 -404 3 -27 14 -79 23 -117 16 -65 16 -70 -5 -155 -12 -48 -25
-106 -29 -130 -14 -100 -73 -276 -110 -331 -47 -70 -276 -296 -346 -343 -76
-50 -313 -183 -380 -212 -32 -14 -95 -36 -140 -50 -94 -27 -185 -61 -407 -148
-159 -63 -315 -115 -531 -175 -212 -59 -284 -83 -339 -114 -44 -25 -57 -40
-78 -86 -44 -95 -16 -170 71 -194 50 -14 280 -5 417 16 89 13 413 92 471 114
15 6 69 17 120 26 101 17 173 38 229 66 48 24 357 88 506 104 67 8 151 23 186
34 74 22 284 48 496 61 81 5 184 14 231 19 47 6 146 15 220 21 170 13 222 24
336 67 68 26 113 52 172 99 45 35 89 75 98 88 25 39 21 94 -10 125 -39 38 -94
34 -178 -12 -69 -39 -197 -77 -259 -77 -26 0 -47 8 -68 26 -42 35 -42 78 2
136 18 24 46 66 62 93 16 28 48 76 72 108 23 32 75 123 114 202 85 170 111
205 185 241 59 29 75 29 341 8 104 -9 154 9 212 71 60 66 69 131 21 167 -24
17 -49 19 -307 21 l-282 2 -26 25 c-15 14 -34 38 -42 54 -22 42 -32 192 -24
358 7 165 13 177 96 221 103 55 397 -6 491 -103 22 -22 42 -63 68 -143 48
-145 99 -247 148 -298 36 -37 43 -40 86 -37 41 3 48 7 67 38 16 29 21 56 23
155 5 146 -12 324 -34 366 -40 78 -143 165 -229 192 -87 28 -296 66 -425 77
-69 6 -170 22 -225 35 -55 13 -131 28 -170 34 -77 12 -115 22 -287 75 -65 19
-163 45 -219 56 -57 12 -128 34 -162 52 -82 41 -340 131 -637 223 -149 46
-361 77 -550 81 -96 1 -194 -1 -217 -6z"/>
<path d="M15644 6650 c-200 -22 -330 -89 -442 -223 -98 -118 -132 -214 -132
-377 0 -61 -8 -126 -21 -180 -11 -47 -24 -119 -30 -161 -5 -42 -18 -110 -28
-150 -11 -41 -24 -112 -30 -159 -6 -47 -20 -114 -31 -149 -11 -36 -22 -85 -25
-110 -7 -47 -54 -222 -82 -300 -8 -23 -35 -65 -59 -92 -24 -27 -50 -62 -58
-78 -36 -69 -125 -118 -198 -108 -134 18 -177 224 -133 637 17 158 18 161 105
390 15 41 34 102 40 135 7 33 35 105 61 159 27 55 49 107 49 117 0 20 54 188
107 332 41 113 42 171 2 213 -40 43 -81 47 -302 28 -243 -20 -348 -14 -456 24
-66 23 -91 27 -192 27 -115 0 -116 0 -195 -40 -137 -68 -274 -228 -274 -319 0
-46 33 -92 75 -106 58 -19 97 -6 169 59 35 33 74 62 86 66 33 10 53 -13 47
-54 -5 -35 -113 -306 -154 -386 -12 -22 -29 -67 -38 -100 -10 -33 -31 -94 -47
-135 -100 -250 -159 -829 -112 -1095 27 -157 139 -360 239 -436 68 -51 130
-75 236 -89 46 -6 115 -21 153 -32 164 -50 404 14 605 161 46 33 87 61 90 61
19 -1 32 -22 41 -69 13 -68 39 -104 97 -132 61 -30 112 -28 238 8 l100 28 385
0 c432 0 413 -3 514 76 76 59 101 107 101 192 0 65 -2 70 -33 98 -24 22 -42
29 -73 29 -52 0 -71 -11 -141 -76 -46 -44 -63 -54 -92 -54 -40 0 -66 28 -66
70 -1 59 44 352 66 435 13 50 30 137 39 195 8 58 21 127 29 153 9 26 20 95 27
154 6 59 22 158 35 222 14 64 31 163 39 221 33 246 60 352 115 460 28 53 66
143 96 223 26 69 -15 150 -97 192 -76 40 -299 62 -445 45z"/>
<path d="M12545 6450 c-16 -6 -79 -15 -140 -20 -140 -13 -245 -33 -365 -70
-120 -36 -174 -49 -275 -61 -60 -8 -105 -21 -180 -56 -172 -80 -324 -166 -398
-226 -40 -33 -103 -77 -142 -100 -119 -70 -224 -186 -261 -289 -18 -53 -12
-73 42 -128 58 -60 64 -102 34 -225 -20 -81 -22 -113 -21 -317 2 -254 9 -297
68 -418 45 -92 143 -194 223 -233 30 -14 87 -31 125 -37 39 -6 124 -24 190
-40 66 -16 154 -34 195 -39 41 -5 107 -16 145 -24 39 -8 149 -18 245 -21 224
-8 336 10 499 79 117 49 119 50 263 161 115 88 120 94 157 176 40 87 68 196
81 317 15 139 2 235 -52 370 -36 89 -51 113 -92 151 -145 133 -156 145 -156
183 0 39 10 51 152 183 114 106 174 264 149 387 -39 188 -171 296 -371 303
-47 2 -98 -1 -115 -6z m-443 -211 c33 -18 51 -71 56 -160 8 -150 -43 -256
-193 -404 -95 -95 -126 -115 -215 -139 -60 -17 -135 -73 -151 -112 -12 -33 4
-70 38 -87 15 -8 63 -17 105 -19 48 -3 86 -11 102 -21 41 -27 125 -146 141
-200 20 -69 19 -187 -5 -340 -23 -152 -42 -199 -107 -268 -62 -67 -109 -88
-194 -89 -57 0 -72 4 -112 31 -54 35 -87 87 -112 174 -20 67 -22 237 -5 431 9
106 65 368 88 410 6 11 18 49 27 84 11 45 36 94 79 160 35 52 73 113 84 135
24 47 52 74 145 139 71 50 102 94 93 131 -7 28 -50 40 -104 30 -89 -16 -282
-87 -352 -130 -41 -25 -106 -55 -145 -66 -117 -36 -156 -61 -256 -169 -71 -77
-98 -100 -112 -95 -60 24 25 122 218 252 66 44 141 94 167 112 26 17 71 40
100 50 29 10 80 32 113 48 33 17 78 33 100 37 22 4 60 17 85 27 25 11 88 31
140 44 93 24 143 25 182 4z"/>
<path d="M17030 6284 c-115 -13 -133 -18 -219 -60 -61 -30 -108 -61 -132 -88
-144 -156 -179 -201 -195 -250 -9 -28 -30 -80 -46 -116 -31 -70 -84 -310 -98
-448 -21 -204 45 -456 161 -609 73 -98 207 -193 369 -263 73 -32 82 -33 277
-43 181 -9 208 -9 270 7 97 26 107 25 111 -3 3 -19 -12 -39 -69 -94 -89 -85
-236 -162 -339 -177 -89 -13 -290 -12 -366 1 -74 13 -104 38 -136 111 -35 83
-91 108 -159 72 -42 -21 -73 -93 -65 -146 15 -90 78 -164 166 -193 137 -45
285 -43 695 10 248 33 265 36 377 80 154 61 212 100 370 250 105 99 144 144
186 213 29 47 55 98 58 112 3 14 16 59 30 100 14 41 31 113 39 160 8 47 26
119 41 160 26 72 27 85 31 315 6 326 -11 402 -115 517 -80 88 -164 103 -280
50 -49 -23 -81 -32 -97 -28 -13 3 -46 32 -72 63 -170 203 -255 267 -374 282
-41 6 -95 15 -120 20 -57 14 -144 12 -299 -5z m768 -544 c41 -25 67 -68 94
-154 18 -61 20 -84 15 -195 -7 -153 -23 -216 -87 -347 -100 -202 -236 -303
-338 -250 -42 22 -91 79 -102 117 -6 18 -10 73 -10 120 0 101 23 202 76 327
20 48 52 131 72 185 28 79 44 107 79 142 77 76 139 93 201 55z"/>
<path d="M5705 6194 c-92 -33 -153 -113 -162 -213 -8 -87 9 -133 74 -196 130
-127 268 -136 385 -27 88 82 107 141 77 238 -18 57 -30 77 -78 124 -32 31 -74
64 -93 73 -44 21 -146 21 -203 1z"/>
<path d="M9120 5923 c-14 -2 -79 -11 -145 -19 -198 -27 -418 -106 -706 -253
l-237 -121 -94 -98 c-121 -126 -213 -234 -233 -272 -34 -66 -57 -200 -53 -305
8 -170 84 -349 175 -410 21 -14 67 -46 103 -70 101 -69 152 -91 330 -140 176
-48 267 -65 478 -90 241 -27 607 -15 707 24 28 10 97 26 155 35 158 23 224 51
350 144 125 93 163 138 199 230 52 137 37 199 -61 245 -76 35 -106 40 -195 27
-81 -11 -170 -47 -245 -98 -102 -70 -268 -134 -443 -171 -111 -23 -172 -26
-225 -11 -19 6 -74 17 -121 25 -146 23 -309 125 -309 192 0 58 119 125 352
199 79 25 195 65 258 89 116 43 203 69 295 88 173 34 323 85 445 150 126 67
160 96 160 137 0 48 -29 70 -120 93 l-84 22 -52 73 c-87 123 -143 173 -264
233 -86 42 -169 59 -290 57 -58 0 -116 -2 -130 -5z m-228 -364 c11 -6 29 -31
40 -55 18 -43 19 -47 3 -101 -64 -218 -220 -367 -410 -389 -77 -9 -95 8 -95
91 0 34 6 82 14 107 28 94 173 270 260 315 74 39 151 52 188 32z"/>
<path d="M7170 5614 c-19 -3 -94 -13 -167 -24 -169 -25 -260 -25 -369 1 -104
24 -171 20 -251 -16 -87 -39 -84 -105 4 -105 34 0 50 -6 70 -26 24 -24 25 -29
18 -96 -3 -39 -17 -107 -30 -152 -13 -45 -39 -143 -59 -219 -19 -76 -51 -174
-71 -217 -43 -96 -70 -224 -56 -263 22 -58 40 -61 341 -68 198 -5 293 -11 339
-22 58 -14 73 -14 155 0 152 25 200 56 213 136 4 29 1 40 -20 61 -36 36 -65
33 -155 -15 -63 -33 -84 -40 -115 -36 -72 10 -104 67 -94 166 31 298 46 376
87 471 45 107 125 207 191 240 86 44 159 14 159 -66 0 -68 -42 -106 -133 -119
-85 -13 -110 -55 -75 -125 35 -68 93 -103 177 -108 58 -4 78 0 129 23 67 30
120 79 153 144 31 61 31 168 0 229 -29 57 -85 118 -135 147 -74 42 -213 69
-306 59z"/>
<path d="M5405 5561 c-106 -6 -131 -15 -164 -57 -26 -33 -26 -55 -2 -85 16
-20 26 -22 96 -21 85 3 105 -6 105 -45 0 -35 -157 -498 -185 -547 -13 -23 -36
-72 -51 -111 -15 -38 -39 -88 -52 -110 -14 -22 -27 -60 -30 -85 -6 -62 20 -85
92 -84 297 6 641 16 684 20 62 6 116 46 139 103 13 31 13 36 -5 60 -23 31 -60
38 -101 17 -56 -30 -101 -16 -101 31 0 13 18 78 41 145 27 81 45 160 54 234
18 144 28 185 82 323 50 128 49 153 -6 185 -53 31 -319 42 -596 27z"/>
</g>
</svg>
